<svg preserveAspectRatio="none" width="100%" height="100%" overflow="visible" style="display: block;" viewBox="0 0 328 138" fill="none" xmlns="http://www.w3.org/2000/svg">
<path id="Vector 1" d="M32.6668 76.0392C31.3178 74.3173 30.2856 65.682 31.2922 50.3551C31.7949 42.7025 35.6715 35.6021 39.7645 28.893C47.8474 15.6441 59.862 6.79172 70.9097 2.15232C75.9249 0.0462248 80.9456 0.9566 84.5584 3.83068C88.1711 6.70476 90.5319 12.1572 91.9167 21.136C93.3015 30.1148 93.6388 42.4546 91.1144 54.1205C88.5901 65.7864 83.194 76.4044 76.7044 85.8919C70.2147 95.3794 62.7951 103.415 55.9375 109.706C43.7312 120.905 31.3587 126.172 21.6651 128.347C17.4255 129.297 14.3323 129.086 11.9255 127.651C9.51874 126.216 7.83245 123.346 7.46965 119.859C7.10684 116.372 8.11861 112.354 11.8438 109.137C20.2846 101.846 33.975 100.397 46.8725 100.241C64.1783 100.031 73.8837 107.041 75.7437 108.498C79.0812 111.111 89.8267 99.5796 100.389 91.5966C103.507 89.2396 103.532 91.9357 103.527 93.5489C103.521 95.162 103.859 96.0229 104.707 96.3229C106.736 97.0406 113.69 90.8748 121.698 83.6222C124.15 81.4005 123.971 82.683 123.966 83.7048C123.961 84.7266 124.298 85.5875 126.833 86.031C142.115 88.7052 155.244 80.9612 173.655 81.6786C175.811 81.7626 169.716 86.9789 161.714 91.4835C153.711 95.9881 142.919 101.154 116.955 108.837C90.9918 116.52 50.1837 126.564 24.6084 132.168C-0.966882 137.773 -10.0728 138.634 19.2992 134.056C48.6712 129.477 116.797 119.433 174.32 112.967C231.843 106.502 276.698 103.919 300.142 102.015C323.587 100.11 324.261 98.9622 327 97.7795" stroke="var(--stroke-0, white)" stroke-width="2" stroke-linecap="round"/>
</svg>
