<svg preserveAspectRatio="none" width="100%" height="100%" overflow="visible" style="display: block;" viewBox="0 0 117 5" fill="none" xmlns="http://www.w3.org/2000/svg">
<path id="Line 2" d="M0 1.5625C0 2.1875 0 2.8125 0 3.4375C1.93513 3.54167 3.87026 3.64063 5.80539 3.73438C23.2215 4.57813 40.6377 5 58.0539 5C75.47 5 92.8862 4.57813 110.302 3.73438C112.237 3.64063 114.173 3.54167 116.108 3.4375C116.108 2.8125 116.108 2.1875 116.108 1.5625C114.173 1.45833 112.237 1.35938 110.302 1.26562C92.8862 0.421875 75.47 0 58.0539 0C40.6377 0 23.2215 0.421875 5.80539 1.26562C3.87026 1.35937 1.93513 1.45833 0 1.5625Z" fill="var(--stroke-0, white)"/>
</svg>
